<?xml version="1.0" ?><svg viewBox="0 0 16 16" xmlns="http://www.w3.org/2000/svg"><title/><g data-name="Layer 7" id="Layer_7"><path d="M14,1h-.5a.5.5,0,0,0-1,0h-4a.5.5,0,0,0-1,0h-4a.5.5,0,0,0-1,0H2A2.0023,2.0023,0,0,0,0,3V14a2.0023,2.0023,0,0,0,2,2H14a2.0023,2.0023,0,0,0,2-2V3A2.0023,2.0023,0,0,0,14,1ZM1,3A1,1,0,0,1,2,2h.5V3a.5.5,0,0,0,1,0V2h4V3a.5.5,0,0,0,1,0V2h4V3a.5.5,0,0,0,1,0V2H14a1,1,0,0,1,1,1V4.5H1ZM15,14a1,1,0,0,1-1,1H2a1,1,0,0,1-1-1V5.5H15Z"/><path d="M3,12.5H4a.5.5,0,0,0,0-1H3a.5.5,0,0,0,0,1Z"/><path d="M6,12.5H7a.5.5,0,0,0,0-1H6a.5.5,0,0,0,0,1Z"/><path d="M9,12.5h1a.5.5,0,0,0,0-1H9a.5.5,0,0,0,0,1Z"/><path d="M3,10.5H4a.5.5,0,0,0,0-1H3a.5.5,0,0,0,0,1Z"/><path d="M6,10.5H7a.5.5,0,0,0,0-1H6a.5.5,0,0,0,0,1Z"/><path d="M9,10.5h1a.5.5,0,0,0,0-1H9a.5.5,0,0,0,0,1Z"/><path d="M12,10.5h1a.5.5,0,0,0,0-1H12a.5.5,0,0,0,0,1Z"/><path d="M6,8.5H7a.5.5,0,0,0,0-1H6a.5.5,0,0,0,0,1Z"/><path d="M9,8.5h1a.5.5,0,0,0,0-1H9a.5.5,0,0,0,0,1Z"/><path d="M12,8.5h1a.5.5,0,0,0,0-1H12a.5.5,0,0,0,0,1Z"/></g></svg>